#N canvas 391 298 816 415 10;
#X declare -lib mrpeach/packOSC;
#X declare -lib mrpeach/udpsend;
#X declare -lib mrpeach/udpreceive;
#X declare -lib mrpeach/routeOSC;
#X declare -lib mrpeach/unpackOSC;
#X declare -lib moocow/sprinkler;
#N canvas 89 358 420 105 voir_les_capteurs 0;
#X floatatom -112 73 5 0 0 0 - - -;
#X floatatom -62 70 5 0 0 0 - - -;
#X floatatom -10 70 5 0 0 0 - - -;
#X floatatom 59 72 5 0 0 0 - - -;
#X floatatom 109 69 5 0 0 0 - - -;
#X floatatom 161 69 5 0 0 0 - - -;
#X obj 100 17 notein;
#X obj -71 18 ctlin;
#X floatatom 226 56 5 0 0 0 - - -;
#X obj 226 27 ctlin 33 9;
#X connect 6 0 3 0;
#X connect 6 1 4 0;
#X connect 6 2 5 0;
#X connect 7 0 0 0;
#X connect 7 1 1 0;
#X connect 7 2 2 0;
#X connect 9 0 8 0;
#X restore -173 -76 pd voir_les_capteurs;
#N canvas 145 62 393 243 permanent 0;
#X msg -251 90 menusave;
#X obj -251 115 s pd-test_capteurs.pd;
#X obj -251 69 bng 15 250 50 0 empty empty empty 17 7 0 10 -262144
-1 -1;
#X obj -251 43 r savecapt;
#X obj -26 92 r coll;
#X obj -26 136 coll -------;
#C flags 1 0;
#C store telem 1.3;
#C store telem-capt_cont_max-fromgui 0.110236;
#C store telem-capt_cont_max_fromgui 1.3;
#C store telem-capt_cont_min-fromgui 0.440945;
#C store elevation-capt_cont_max-fromgui 0.0866142;
#C store elevation-capt_cont_min-fromgui 0.0866142;
#C store elevation-capt_cont_seu-fromgui 0.385827;
#C store carlo-capt_bin_inv-fromgui 1;
#C store mic1-capt_cont_seu-fromgui 0.362205;
#C store mic2-capt_cont_max-fromgui 1;
#C store mic2-capt_cont_min-fromgui 0;
#C store telem2-capt_cont_max-fromgui 0.866142;
#C store telem2-capt_cont_min-fromgui 0.0472441;
#C store elevation-capt_cont2bin_seu-fromgui 0.385827;
#C store mic1-capt_cont2bin_seu-fromgui 0.0866142;
#C store mic1-capt_cont2bin_gain-fromgui 19.05;
#C store mic2-capt_cont_gain-fromgui 72;
#C store mic1-capt_cont_gain-fromgui 0.05;
#C store mic-capt_cont_max-fromgui 0.700787;
#C store mic-capt_cont_min-fromgui 0.0944882;
#C store mic-capt_cont_gain-fromgui 41.05;
#C store mic-capt_cont_seu-fromgui 0.314961;
#C store mic-capt_cont2bin_gain-fromgui 58.05;
#C store mic-capt_cont2bin_seu-fromgui 1;
#C store cap1-capt_cont_max-fromgui 1;
#C store cap1-capt_cont_min-fromgui 1;
#C store c1-capt_cont_max-fromgui 0.84252;
#C store c1-capt_cont_min-fromgui 0;
#C store c2-capt_cont_max-fromgui 0.826772;
#C store c2-capt_cont_min-fromgui 0;
#C store c3-capt_cont_max-fromgui 1;
#C store c3-capt_cont_min-fromgui 0;
#C store -capt_cont_max-fromgui 1;
#C store -capt_cont_min-fromgui 0;
#C store start_stop-capt_cont2bin_seu-fromgui 0.385827;
#C store -capt_cont2bin_seu-fromgui 0.472441;
#C store trig-capt_cont2bin_seu-fromgui 0.685039;
#C store c0-capt_cont_max-fromgui 0.889764;
#C store c0-capt_cont_min-fromgui 0;
#C restore;
#X obj -64 42 t a a;
#X msg -37 70 \$1-fromgui;
#X obj -80 137 symbol;
#X obj -71 162 pack s f;
#X obj -71 186 sprinkler;
#X msg 21 114 flags 1 0;
#X obj 21 93 loadbang;
#X msg -80 113 \$1-gui;
#X obj -64 -7 r retrieve_val;
#X obj -64 17 symbol;
#X obj -123 195 print;
#X connect 0 0 1 0;
#X connect 2 0 0 0;
#X connect 3 0 2 0;
#X connect 4 0 5 0;
#X connect 5 0 9 1;
#X connect 6 0 13 0;
#X connect 6 1 7 0;
#X connect 7 0 5 0;
#X connect 8 0 9 0;
#X connect 9 0 10 0;
#X connect 9 0 16 0;
#X connect 11 0 5 0;
#X connect 12 0 11 0;
#X connect 13 0 8 0;
#X connect 14 0 15 0;
#X connect 15 0 6 0;
#X restore -173 -56 pd permanent;
#X obj -208 -22 liken_net;
#X obj 258 -61 capt_cont2bin_classic trig 1 14;
#X obj -3 -63 capt_cont_classic c0 1 7;
#X obj -2 57 capt_cont_classic c1 2 7;
#X obj 0 177 capt_cont_classic c2 3 7;
