#N canvas 434 358 860 356 10;
#X declare -lib moocow/sprinkler;
#X declare -lib mrpeach/routeOSC;
#X declare -lib mrpeach/udpreceive;
#X declare -lib mrpeach/udpsend;
#X declare -lib mrpeach/packOSC;
#X declare -lib mrpeach/unpackOSC;
#X obj 9 -85 cnv 15 200 300 empty empty TO_PYTHON 20 12 0 14 -133440
-66577 0;
#X obj 29 144 udpsend;
#X obj 29 180 tgl 15 0 empty empty empty 17 7 0 10 -262144 -1 -1 1
1;
#X msg 71 114 disconnect;
#X obj 29 41 packOSC;
#X obj 29 -60 tgl 15 0 empty empty empty 17 7 0 10 -262144 -1 -1 0
1;
#X msg 59 94 connect localhost 9001;
#X obj 29 -38 metro 200;
#X obj 59 67 loadbang;
#X obj 431 -85 cnv 15 400 300 empty empty RECEIVER 20 12 0 14 -260097
-66577 0;
#X obj 221 -85 cnv 15 200 300 empty empty TO_SUPERCOLLIDER 20 12 0
14 -4032 -66577 0;
#X obj 252 63 packOSC;
#X obj 252 154 udpsend;
#X obj 252 190 tgl 15 0 empty empty empty 17 7 0 10 -262144 -1 -1 1
1;
#X msg 275 132 disconnect;
#X msg 268 112 connect 127.0.0.1 57120;
#X obj 223 -41 tgl 15 0 empty empty empty 17 7 0 10 -262144 -1 -1 0
1;
#X obj 223 -19 metro 200;
#X obj 268 86 loadbang;
#X obj 451 -23 unpackOSC;
#X floatatom 502 6 10 0 0 1 milliseconds_timestamp - -;
#X obj 451 101 unpack s f;
#X msg 451 130 open "\$1";
#X obj 451 -55 udpreceive 9002;
#X obj 451 38 routeOSC /test;
#X obj 625 88 unpack s f;
#X msg 625 117 open "\$1";
#X obj 451 66 routeOSC /from_py /from_sc;
#X obj 451 164 print from python string ::;
#X obj 508 186 print from python float ::;
#X obj 625 151 print from sc string ::;
#X obj 682 173 print from sc float ::;
#N canvas 0 0 324 273 import 0;
#X obj 17 19 import moocow/sprinkler;
#X obj 17 67 import mrpeach/routeOSC;
#X obj 17 92 import mrpeach/udpreceive;
#X obj 17 117 import mrpeach/udpsend;
#X obj 17 43 import mrpeach/packOSC;
#X obj 16 141 import mrpeach/unpackOSC;
#X restore 10 230 pd import;
#X obj 29 -11 f;
#X obj 57 -10 + 1;
#X msg 29 19 send /test from_pd \$1;
#X msg 223 4 send /test from_pd hello_to you;
#X connect 1 0 2 0;
#X connect 3 0 1 0;
#X connect 4 0 1 0;
#X connect 5 0 7 0;
#X connect 6 0 1 0;
#X connect 7 0 33 0;
#X connect 8 0 6 0;
#X connect 11 0 12 0;
#X connect 12 0 13 0;
#X connect 14 0 12 0;
#X connect 15 0 12 0;
#X connect 16 0 17 0;
#X connect 17 0 36 0;
#X connect 18 0 15 0;
#X connect 19 0 24 0;
#X connect 19 1 20 0;
#X connect 21 0 22 0;
#X connect 21 1 29 0;
#X connect 22 0 28 0;
#X connect 23 0 19 0;
#X connect 24 0 27 0;
#X connect 25 0 26 0;
#X connect 25 1 31 0;
#X connect 26 0 30 0;
#X connect 27 0 21 0;
#X connect 27 1 25 0;
#X connect 33 0 34 0;
#X connect 34 0 33 1;
#X connect 34 0 35 0;
#X connect 35 0 4 0;
#X connect 36 0 11 0;
