#N canvas 401 289 319 171 10;
#X msg 159 30 0;
#X msg 189 30 1;
#X obj 114 69 spigot 1;
#X obj 114 11 inlet;
#X obj 115 140 outlet;
#X obj 189 74 delay \$1;
#X obj 96 113 t b f b;
#X connect 0 0 2 1;
#X connect 1 0 2 1;
#X connect 2 0 6 0;
#X connect 3 0 2 0;
#X connect 5 0 1 0;
#X connect 6 0 5 0;
#X connect 6 1 4 0;
#X connect 6 2 0 0;
