#N canvas 334 422 395 161 10;
#X obj 29 20 hsl 128 15 0 1 0 0 \$1-capt_cont2bin-fromgui \$1-capt_cont2bin-gui
empty -2 -6 0 10 -4034 -1 -1 0 1;
#X obj 205 3 tgl 15 0 \$1-capt_cont2bin_disp-fromgui \$1-capt_cont2bin_disp
disp 17 7 0 10 -262144 -1 -1 1 1;
#X obj 29 38 hsl 128 15 0 1 0 0 \$1-capt_cont2bin_seu-fromgui \$1-capt_cont2bin_seu-gui
empty -2 -8 0 10 -239617 -1 -1 8700 1;
#X floatatom 162 38 5 0 0 0 - - -;
#X text 2 17 raw;
#X text 44 62 out;
#X floatatom 162 20 5 0 0 0 - - -;
#X obj 205 37 tgl 15 0 \$1-capt_cont2bin_in-fromgui \$1-capt_cont2bin_in
in 17 7 0 10 -262144 -1 -1 1 1;
#X obj 205 54 tgl 15 0 \$1-capt_cont2bin_out-fromgui \$1-capt_cont2bin_out
out 17 7 0 10 -262144 -1 -1 1 1;
#X obj 205 20 tgl 15 0 \$1-capt_cont2bin_man-fromgui \$1-capt_cont2bin_man
man 17 7 0 10 -262144 -1 -1 0 1;
#X obj 205 73 tgl 15 0 \$1-capt_cont2bin_inv-fromgui \$1-capt_cont2bin_inv
inv 17 7 0 10 -262144 -1 -1 0 1;
#N canvas 854 576 413 171 init 0;
#X obj 101 -40 loadbang;
#X msg 101 -2 0;
#X msg 141 -1 1;
#X obj 192 40 s \$1-capt_cont2bin_disp;
#X obj 168 62 s \$1-capt_cont2bin_out;
#X obj 141 85 s \$1-capt_cont2bin_in;
#X obj -16 64 s \$1-capt_cont2bin_man;
#X connect 0 0 1 0;
#X connect 0 0 2 0;
#X connect 1 0 6 0;
#X connect 2 0 3 0;
#X connect 2 0 4 0;
#X connect 2 0 5 0;
#X restore 267 -1 pd init;
#N canvas 597 185 343 233 collstore 0;
#X obj 18 47 symbol \$1;
#X obj 45 164 s coll;
#X obj 18 117 prepend store;
#X obj 18 95 pack s f;
#X obj 18 19 t b f;
#X obj 18 142 t b a;
#X obj 18 185 s savecapt;
#X obj 145 136 symbol \$1;
#X obj 145 111 loadbang;
#X obj 145 186 s retrieve_val;
#X obj 18 -6 r \$1-capt_cont2bin_seu-fromgui;
#X msg 18 69 \$1-capt_cont2bin_seu-fromgui;
#X msg 145 162 \$1-capt_cont2bin_seu;
#X connect 0 0 11 0;
#X connect 2 0 5 0;
#X connect 3 0 2 0;
#X connect 4 0 0 0;
#X connect 4 1 3 1;
#X connect 5 0 6 0;
#X connect 5 1 1 0;
#X connect 7 0 12 0;
#X connect 8 0 7 0;
#X connect 10 0 4 0;
#X connect 11 0 3 0;
#X connect 12 0 9 0;
#X restore 267 21 pd collstore;
#N canvas 69 59 429 273 oscout 1;
#X obj 174 96 spigot 1;
#X obj 135 239 s osc;
#X msg 89 84 0;
#X obj 180 137 inlet;
#X obj 135 165 symbol;
#X obj 89 60 r capt_init;
#X obj 135 193 pack s f;
#X obj 135 136 t b f;
#X obj 219 76 tgl 15 0 empty empty empty 17 7 0 10 -262144 -1 -1 1
1;
#X obj 174 30 r \$1-capt_cont2bin_out_val;
#X obj 219 53 r \$1-capt_cont2bin_out-fromgui;
#X msg 135 217 /pd/capt_bin \$1 \$2;
#X connect 0 0 7 0;
#X connect 2 0 7 0;
#X connect 3 0 4 1;
#X connect 4 0 6 0;
#X connect 5 0 2 0;
#X connect 6 0 11 0;
#X connect 7 0 4 0;
#X connect 7 1 6 1;
#X connect 8 0 0 1;
#X connect 9 0 0 0;
#X connect 10 0 8 0;
#X connect 11 0 1 0;
#X restore 193 -26 pd oscout;
#X obj 193 -46 inlet;
#N canvas 0 22 445 202 in 0;
#X obj -277 33 inlet;
#X obj -157 80 spigot 0;
#X obj -112 62 tgl 15 0 empty empty empty 17 7 0 10 -262144 -1 -1 0
1;
#X obj -277 59 spigot 0;
#X obj -232 41 tgl 15 0 empty empty empty 17 7 0 10 -262144 -1 -1 1
1;
#X obj -232 19 expr 1-$f1;
#X obj -232 -4 r \$1-capt_cont2bin_man-fromgui;
#X obj -157 19 r \$1-capt_cont2bin-fromgui;
#X obj -112 41 r \$1-capt_cont2bin_man-fromgui;
#X obj -226 132 s \$1-capt_cont2bin_rawtmp;
#X connect 0 0 3 0;
#X connect 1 0 9 0;
#X connect 2 0 1 1;
#X connect 3 0 9 0;
#X connect 4 0 3 1;
#X connect 5 0 4 0;
#X connect 6 0 5 0;
#X connect 7 0 1 0;
#X connect 8 0 2 0;
#X restore 2 -24 pd in;
#X obj 2 -45 inlet;
#N canvas 30 22 333 173 display 0;
#X obj -117 71 tgl 15 0 empty empty empty 17 7 0 10 -262144 -1 -1 1
1;
#X obj -162 89 spigot 1;
#X obj -162 28 r \$1-capt_cont2bin_out_val;
#X obj -117 50 r \$1-capt_cont2bin_disp-fromgui;
#X obj -162 114 s \$1-capt_cont2bin_out_val-gui;
#X connect 0 0 1 1;
#X connect 1 0 4 0;
#X connect 2 0 1 0;
#X connect 3 0 0 0;
#X restore 266 46 pd display;
#N canvas 190 74 330 273 compute_out 0;
#X obj -69 154 demultiplex;
#X obj -6 177 expr 1-$f1;
#X obj -6 201 f;
#X obj -6 135 tgl 15 0 empty empty empty 17 7 0 10 -262144 -1 -1 0
1;
#X obj -69 88 >=;
#X obj -69 120 change;
#X obj -69 19 r \$1-capt_cont2bin_rawtmp;
#X obj 1 42 r \$1-capt_cont2bin_seu-fromgui;
#X obj -6 115 r \$1-capt_cont2bin_inv-fromgui;
#X obj -6 227 s \$1-capt_cont2bin_out_val;
#X connect 0 0 2 0;
#X connect 0 1 1 0;
#X connect 1 0 2 0;
#X connect 2 0 9 0;
#X connect 3 0 0 1;
#X connect 4 0 5 0;
#X connect 5 0 0 0;
#X connect 6 0 4 0;
#X connect 7 0 4 1;
#X connect 8 0 3 0;
#X restore 265 70 pd compute_out;
#X text 2 35 seu;
#X obj 76 57 tgl 30 0 \$1-capt_cont2bin_out_val-fromgui \$1-capt_cont2bin_out_val-gui
empty 17 7 0 10 -257985 -1 -1 0 1;
#X connect 0 0 6 0;
#X connect 2 0 3 0;
#X connect 14 0 13 0;
#X connect 16 0 15 0;
#X coords 0 -1 1 1 250 90 1 0 0;
