#N canvas 757 113 523 342 10;
#X obj 343 51 loadbang;
#X obj 343 75 symbol \$1;
#X obj 100 140 capt_cont \$1;
#X obj 100 50 env~ 1024;
#X obj 101 24 adc~ \$2;
#X obj 100 74 / 100;
#X obj 171 121 hsl 128 15 0 127 0 0 \$1-capt_cont_gain-fromgui \$1-capt_cont_gain-gui
empty -2 -8 0 10 -262144 -1 -1 9300 1;
#X floatatom 304 120 5 0 0 0 - - -;
#N canvas 247 209 342 236 collstore 0;
#X obj 18 47 symbol \$1;
#X obj 45 167 s coll;
#X obj 18 117 prepend store;
#X obj 18 95 pack s f;
#X obj 18 19 t b f;
#X obj 18 145 t b a;
#X obj 18 188 s savecapt;
#X obj 133 130 symbol \$1;
#X obj 133 105 loadbang;
#X obj 133 184 s retrieve_val;
#X obj 206 101 bng 15 250 50 0 empty empty empty 17 7 0 10 -262144
-1 -1;
#X obj 18 -6 r \$1-capt_cont_gain-fromgui;
#X msg 18 69 \$1-capt_cont_gain-fromgui;
#X msg 133 156 \$1-capt_cont_gain;
#X connect 0 0 12 0;
#X connect 2 0 5 0;
#X connect 3 0 2 0;
#X connect 4 0 0 0;
#X connect 4 1 3 1;
#X connect 5 0 6 0;
#X connect 5 1 1 0;
#X connect 7 0 13 0;
#X connect 8 0 7 0;
#X connect 10 0 7 0;
#X connect 11 0 4 0;
#X connect 12 0 3 0;
#X connect 13 0 9 0;
#X restore 206 55 pd collstore;
#X connect 0 0 1 0;
#X connect 1 0 2 1;
#X connect 3 0 5 0;
#X connect 4 0 3 0;
#X connect 5 0 2 0;
#X connect 6 0 5 1;
#X connect 6 0 7 0;
#X coords 0 -1 1 1 250 130 1 100 100;
