#N canvas 515 133 479 300 10;
#X obj 100 120 capt_cont \$1;
#X obj 100 15 * 128;
#X obj 100 42 +;
#X obj 100 -15 ctlin 2 \$2;
#X obj 180 -14 ctlin 3 \$2;
#X obj 100 65 / 5000;
#X connect 1 0 2 0;
#X connect 2 0 5 0;
#X connect 3 0 1 0;
#X connect 4 0 2 1;
#X connect 5 0 0 0;
#X coords 0 -1 1 1 250 110 1 100 100;
