#N canvas 312 126 504 479 10;
#X declare -lib mrpeach/packOSC;
#X declare -lib mrpeach/udpsend;
#X declare -lib mrpeach/udpreceive;
#X declare -lib mrpeach/routeOSC;
#X declare -lib mrpeach/unpackOSC;
#X declare -lib moocow/sprinkler;
#X msg -16 126 disconnect;
#X obj 22 147 r osc;
#X obj -70 80 loadbang;
#X obj -7 204 packOSC;
#X obj -16 247 udpsend;
#X obj 189 239 udpreceive 9000;
#X obj 189 302 routeOSC /send_pd_mess;
#X obj 189 336 sprinkler;
#X obj -16 271 tgl 15 0 empty empty empty 17 7 0 10 -262144 -1 -1 1
1;
#X obj -16 296 sel 0;
#X obj -16 322 delay 1000;
#X obj 189 272 unpackOSC;
#X obj 111 374 print;
#X obj 111 349 spigot 0;
#X obj 105 162 tgl 15 0 empty empty empty 17 7 0 10 -262144 -1 -1 1
1;
#X obj 111 309 inlet;
#X obj 152 -25 r scene;
#X symbolatom 152 139 15 0 0 0 - - -;
#X obj 152 70 prepend set;
#X obj 174 44 s osc;
#X obj 174 17 prepend scene;
#X text 104 139 scenes;
#X text 123 162 debug network;
#X obj -54 -14 cnv 15 100 60 empty empty empty 20 12 0 14 -260097 -66577
0;
#N canvas 698 258 337 210 import 0;
#X obj 20 -5 import mrpeach/packOSC;
#X obj 18 16 import mrpeach/udpsend;
#X obj 21 84 import mrpeach/udpreceive;
#X obj 23 63 import mrpeach/routeOSC;
#X obj 21 43 import mrpeach/unpackOSC;
#X obj 26 115 import moocow/sprinkler;
#X restore -39 4 pd import;
#X msg -70 103 connect 127.0.0.1 9001;
#X obj 23 172 null;
#X connect 0 0 4 0;
#X connect 1 0 26 0;
#X connect 2 0 25 0;
#X connect 3 0 4 0;
#X connect 4 0 8 0;
#X connect 5 0 11 0;
#X connect 6 0 7 0;
#X connect 6 0 13 0;
#X connect 8 0 9 0;
#X connect 9 0 10 0;
#X connect 10 0 25 0;
#X connect 11 0 6 0;
#X connect 13 0 12 0;
#X connect 14 0 13 1;
#X connect 15 0 13 0;
#X connect 16 0 18 0;
#X connect 16 0 20 0;
#X connect 18 0 17 0;
#X connect 20 0 19 0;
#X connect 25 0 4 0;
#X connect 26 0 3 0;
#X connect 26 0 13 0;
#X coords 0 -1 1 1 150 80 1 100 100;
