#N canvas 394 114 554 541 10;
#X floatatom 302 -47 3 0 0 0 - - -;
#X obj 251 -76 notein;
#X floatatom 251 -28 3 0 0 0 - - -;
#X obj 251 -9 pack f f;
#X obj 251 225 s zone;
#X obj 302 -31 / 127;
#X obj 406 68 r zone-checked;
#X obj 388 235 s zone-passed;
#X obj 406 136 spigot 1;
#X msg 470 115 1;
#X msg 450 91 0;
#X obj 61 104 zone 61;
#X obj 414 167 t b b;
#X obj 8 102 zone 60;
#X obj 66 159 zone 63;
#X obj 8 44 zone 59;
#X obj 63 42 zone 58;
#X obj 7 158 zone 62;
#X obj 460 199 del 100;
#X obj 407 259 s sc_tapis;
#X obj 351 207 unpack f f;
#X obj 149 257 r tapis_silence;
#X obj 182 329 delay;
#X msg 152 366 0;
#X obj 149 282 t b f b;
#X msg 182 367 1;
#X obj 7 215 tgl 30 0 empty empty sensibilité 35 7 0 8 -260818 -1
-1 0 1;
#X obj 251 199 spigot;
#X obj 235 331 loadbang;
#X obj 149 234 r tapis_onoff;
#X connect 0 0 5 0;
#X connect 1 0 2 0;
#X connect 1 1 0 0;
#X connect 2 0 3 0;
#X connect 3 0 27 0;
#X connect 5 0 3 1;
#X connect 6 0 8 0;
#X connect 8 0 7 0;
#X connect 8 0 12 0;
#X connect 8 0 20 0;
#X connect 9 0 8 1;
#X connect 10 0 8 1;
#X connect 12 0 18 0;
#X connect 12 1 10 0;
#X connect 18 0 9 0;
#X connect 20 1 19 0;
#X connect 21 0 24 0;
#X connect 22 0 25 0;
#X connect 23 0 26 0;
#X connect 24 0 22 0;
#X connect 24 1 22 1;
#X connect 24 2 23 0;
#X connect 25 0 26 0;
#X connect 26 0 27 1;
#X connect 27 0 4 0;
#X connect 28 0 23 0;
#X connect 29 0 26 0;
#X coords 0 -1 1 1 120 250 1 0 0;
