#N canvas 338 109 392 445 10;
#X obj 3 33 tgl 15 0 empty empty empty 0 -6 0 8 -228856 -1 -1 1 1;
#X obj 4 -31 route \$1;
#X obj 4 -53 r zone;
#X obj 6 258 pack \$1 f;
#X obj 6 232 t b f;
#X obj 6 279 s zone-checked;
#X obj 3 16 tgl 15 0 empty empty empty 0 -6 0 10 -162280 -1 -1 1 1
;
#X msg 50 90 1;
#X obj 129 237 counter;
#X msg 116 119 1;
#X msg 150 120 0;
#X obj 50 70 t b b b b;
#X obj 97 1 sel 1 0;
#X floatatom 129 260 5 0 0 0 - - -;
#X obj 129 166 metro 100;
#X obj 148 214 bng 15 250 50 0 empty empty empty 0 -6 0 10 -262144
-1 -1;
#X msg 129 357 0;
#X obj 129 310 sel 1;
#X obj 116 36 t b b;
#X obj 129 283 > 5;
#X obj 74 -27 route \$1;
#X obj 74 -49 r zone-passed;
#X obj 27 28 tgl 20 0 empty empty empty 0 -6 0 10 -4034 -1 -1 1 1;
#X obj 129 333 t f b;
#X connect 0 0 4 0;
#X connect 1 0 6 0;
#X connect 2 0 1 0;
#X connect 3 0 5 0;
#X connect 4 0 3 0;
#X connect 4 1 3 1;
#X connect 6 0 12 0;
#X connect 7 0 0 0;
#X connect 8 0 13 0;
#X connect 9 0 14 0;
#X connect 10 0 14 0;
#X connect 11 0 7 0;
#X connect 11 3 10 0;
#X connect 12 0 11 0;
#X connect 12 1 18 0;
#X connect 13 0 19 0;
#X connect 14 0 8 0;
#X connect 15 0 8 2;
#X connect 16 0 0 0;
#X connect 17 0 23 0;
#X connect 18 0 9 0;
#X connect 18 1 15 0;
#X connect 19 0 17 0;
#X connect 20 0 22 0;
#X connect 21 0 20 0;
#X connect 23 0 16 0;
#X connect 23 1 10 0;
#X coords 0 -1 1 1 50 50 1 0 0;
